<?xml version="1.0" encoding="utf-8"?>
<!-- Generator: Adobe Illustrator 25.3.1, SVG Export Plug-In . SVG Version: 6.00 Build 0)  -->
<svg version="1.1" id="Layer_1" xmlns="http://www.w3.org/2000/svg" xmlns:xlink="http://www.w3.org/1999/xlink" x="0px" y="0px"
	 viewBox="0 0 400 225" style="enable-background:new 0 0 400 225;" xml:space="preserve">
<style type="text/css">
	.st0{clip-path:url(#SVGID_2_);}
	.st1{fill:#5443B9;}
	.st2{fill:#FFFFFF;stroke:#5443B9;stroke-width:4;}
	.st3{fill:#FFFFFF;}
	.st4{fill:#FFC81A;}
	.st5{fill:#D0A700;}
	.st6{fill:#E29563;}
	.st7{fill:#363351;}
	.st8{fill:#FC707B;}
	.st9{font-family:'Montserrat-Black';}
	.st10{font-size:21px;}
</style>
<g>
	<defs>
		<rect id="SVGID_1_" width="400" height="225"/>
	</defs>
	<clipPath id="SVGID_2_">
		<use xlink:href="#SVGID_1_"  style="overflow:visible;"/>
	</clipPath>
	<g class="st0">
		<rect x="113.3" y="30.9" class="st1" width="163.3" height="163.3"/>
		
			<rect x="167.6" y="38.3" transform="matrix(-1 -4.493218e-11 4.493218e-11 -1 364.7852 106.179)" class="st2" width="29.5" height="29.5"/>
		
			<rect x="167.6" y="67.9" transform="matrix(-1 -4.487090e-11 4.487090e-11 -1 364.7852 165.3491)" class="st2" width="29.5" height="29.5"/>
		
			<rect x="167.7" y="97.4" transform="matrix(-1 -4.490154e-11 4.490154e-11 -1 364.8907 224.4137)" class="st2" width="29.5" height="29.5"/>
		
			<rect x="167.7" y="127" transform="matrix(-1 -4.490154e-11 4.490154e-11 -1 364.8907 283.5837)" class="st2" width="29.5" height="29.5"/>
		
			<rect x="197.4" y="127" transform="matrix(-1 -4.496327e-11 4.496327e-11 -1 424.3772 283.5837)" class="st2" width="29.5" height="29.5"/>
		
			<rect x="137.9" y="127" transform="matrix(-1 -4.502499e-11 4.502499e-11 -1 305.4042 283.5837)" class="st2" width="29.5" height="29.5"/>
		
			<rect x="227" y="68" transform="matrix(-1 -4.487090e-11 4.487090e-11 -1 483.4418 165.4546)" class="st2" width="29.5" height="29.5"/>
		
			<rect x="197.4" y="68" transform="matrix(-1 -4.490154e-11 4.490154e-11 -1 424.3772 165.4546)" class="st2" width="29.5" height="29.5"/>
		
			<rect x="137.9" y="68" transform="matrix(-1 -4.483981e-11 4.483981e-11 -1 305.4042 165.4546)" class="st2" width="29.5" height="29.5"/>
		
			<rect x="167.7" y="156.8" transform="matrix(-1 -4.483981e-11 4.483981e-11 -1 364.8907 343.0702)" class="st2" width="29.5" height="29.5"/>
		<g>
			<path class="st3" d="M222.8,138.2c0.9,0,1.2-0.1,27.5-7.2l0,0c1-0.3,1.8-0.8,2.5-1.5l0,0c0.1-0.1,10.3-11.5,20.3-23.1
				c21.6-25.2,21.5-27.1,21.2-29.7c-0.8-9.7-13.1-20.8-23-20.8c-0.4,0-0.8,0-1.2,0c-2.4,0.2-4.7,0.3-26.9,24.9
				c-10.3,11.4-20.2,23-20.3,23.1l0,0c-0.6,0.7-1,1.6-1.2,2.5v0c0,0-1,6.4-2,12.9c-0.5,3.2-1,6.5-1.4,8.9c-0.4,2.3-0.6,3.8-0.6,4.9
				h0v5.2L222.8,138.2z"/>
			<g>
				<polygon class="st4" points="237.8,116.9 248.8,126.3 278.8,92.2 267.7,82.8 				"/>
				<polygon class="st5" points="226.7,107.5 237.8,116.9 267.7,82.8 256.7,73.4 				"/>
				<g>
					<path class="st6" d="M230.4,125.2c1.7,1.4,3.4,3.1,4.8,4.8l13.7-3.7c0,0-2.1-5.9-9.2-12c-6.9-5.9-12.9-6.9-12.9-6.9l-2.2,13.6
						C226.6,122.2,228.6,123.6,230.4,125.2z"/>
					<path class="st7" d="M224.4,121c0,0-1.9,12.2-1.8,12.2c0,0.2,12.6-3.2,12.6-3.2c-1.5-1.7-3.1-3.3-4.8-4.8
						C228.6,123.6,226.6,122.2,224.4,121z"/>
				</g>
				
					<rect x="267.4" y="66.7" transform="matrix(0.6473 -0.7622 0.7622 0.6473 33.2293 234.3532)" class="st3" width="4.9" height="29.1"/>
				<path class="st8" d="M259.6,69.9l22.2,18.9c0,0,7.7-7,7.3-11.4c-0.6-7.3-11.4-16.7-18.6-16.1C266,61.5,259.6,69.9,259.6,69.9z"
					/>
			</g>
		</g>
		<text transform="matrix(1 0 0 1 144.6279 148.936)" class="st1 st9 st10">H</text>
		<text transform="matrix(1 0 0 1 176.1358 148.6407)" class="st1 st9 st10">5</text>
		<text transform="matrix(1 0 0 1 204.684 148.9014)" class="st1 st9 st10">P</text>
	</g>
</g>
</svg>
